<?xml version="1.0" encoding="UTF-8" standalone="no" ?>
<!DOCTYPE svg PUBLIC "-//W3C//DTD SVG 1.1//EN" "http://www.w3.org/Graphics/SVG/1.1/DTD/svg11.dtd">
<svg xmlns="http://www.w3.org/2000/svg" xmlns:xlink="http://www.w3.org/1999/xlink" version="1.1" width="1080" height="1080" viewBox="0 0 1080 1080" xml:space="preserve">
<desc>Created with Fabric.js 5.2.4</desc>
<defs>
</defs>
<g transform="matrix(1 0 0 1 540 540)" id="657947ce-f5de-403a-8704-4e36332a6abc"  >
<rect style="stroke: none; stroke-width: 1; stroke-dasharray: none; stroke-linecap: butt; stroke-dashoffset: 0; stroke-linejoin: miter; stroke-miterlimit: 4; fill: rgb(255,255,255); fill-rule: nonzero; opacity: 1; visibility: hidden;" vector-effect="non-scaling-stroke"  x="-540" y="-540" rx="0" ry="0" width="1080" height="1080" />
</g>
<g transform="matrix(1 0 0 1 540 540)" id="3641fd6f-21d9-4015-9c1b-40ba030ec00a"  >
</g>
<g transform="matrix(3 0 0 3 539.85 540.2)"  >
<path style="stroke: none; stroke-width: 1; stroke-dasharray: none; stroke-linecap: butt; stroke-dashoffset: 0; stroke-linejoin: miter; stroke-miterlimit: 4; fill: rgb(206,162,97); fill-rule: nonzero; opacity: 1;"  transform=" translate(-192, -255.34)" d="M 215.7 499.2 C 267 435 384 279.4 384 192 C 384 86 298 0 192 0 C 86 0 0 86 0 192 C 0 279.4 117 435 168.3 499.2 C 180.60000000000002 514.5 203.4 514.5 215.70000000000002 499.2 z M 192 128 C 227.34622398917077 128 256 156.6537760108292 256 192 C 256 227.34622398917077 227.3462239891708 256 192.00000000000003 256 C 156.65377601082923 256 128 227.34622398917077 128 192 C 128 156.65377601082923 156.65377601082923 128 192 128 z" stroke-linecap="round" />
</g>
</svg>